<svg id="svg" xmlns="http://www.w3.org/2000/svg" width="400" height="400" viewBox="0, 0, 400,400" version="1.1">
    <g id="svgg">
        <path id="path0"
              d="M100.889 101.468 C 99.476 102.037,94.000 118.793,94.000 122.548 C 94.000 123.150,93.534 125.299,92.964 127.322 C 92.395 129.345,91.773 131.900,91.583 133.000 C 91.260 134.867,90.993 136.127,89.381 143.400 C 88.228 148.599,85.919 161.040,85.149 166.200 C 84.625 169.709,84.377 169.997,81.851 170.014 C 80.723 170.022,78.630 170.285,77.200 170.600 C 75.770 170.915,73.520 171.183,72.200 171.195 C 70.880 171.208,69.139 171.373,68.331 171.560 C 65.656 172.182,65.502 171.336,67.026 164.400 C 68.323 158.496,69.242 152.875,69.119 151.600 C 69.065 151.050,69.169 148.193,69.350 145.252 C 69.745 138.814,69.355 137.508,66.469 135.596 C 64.415 134.236,64.579 134.260,58.400 134.390 C 52.523 134.513,52.783 134.321,51.238 139.676 C 50.520 142.164,49.617 145.100,49.232 146.200 C 48.847 147.300,48.302 149.280,48.021 150.600 C 47.739 151.920,47.276 153.810,46.991 154.800 C 46.706 155.790,46.180 158.040,45.822 159.800 C 45.464 161.560,44.994 163.720,44.776 164.600 C 44.558 165.480,44.197 167.401,43.974 168.870 C 42.966 175.481,43.164 175.306,35.000 176.807 C 22.090 179.181,22.647 183.866,35.800 183.539 L 41.400 183.400 41.522 186.200 C 41.589 187.740,41.369 190.800,41.033 193.000 C 39.463 203.272,38.300 221.252,38.549 231.400 C 39.164 256.469,41.140 271.227,44.569 276.358 C 47.211 280.312,48.761 278.453,49.806 270.076 C 50.172 267.148,50.922 263.098,51.474 261.076 C 52.031 259.037,52.622 255.441,52.802 253.000 C 53.041 249.766,53.465 247.593,54.400 244.800 C 55.688 240.955,56.485 237.768,57.249 233.400 C 57.863 229.889,59.155 223.245,59.583 221.400 C 60.448 217.671,62.013 204.876,62.788 195.200 C 63.468 186.697,64.404 180.692,65.117 180.252 C 65.489 180.021,75.814 178.365,80.400 177.799 C 83.210 177.453,83.300 177.636,82.577 182.225 C 81.743 187.515,80.985 192.652,80.426 196.800 C 80.174 198.670,79.793 201.370,79.581 202.800 C 79.032 206.489,77.752 218.204,77.022 226.235 C 76.146 235.863,76.140 264.405,77.013 269.412 C 77.351 271.347,77.702 275.825,77.794 279.365 C 77.917 284.079,78.185 286.709,78.798 289.200 C 79.258 291.070,79.867 293.921,80.152 295.536 C 81.105 300.938,82.947 299.045,83.630 291.963 C 83.813 290.072,84.318 287.622,84.754 286.517 C 85.339 285.033,85.614 283.062,85.808 278.955 C 86.624 261.713,86.632 261.624,87.522 260.421 C 88.468 259.140,88.906 257.698,88.982 255.613 C 89.010 254.836,89.070 253.092,89.116 251.737 C 89.191 249.541,89.282 249.296,89.955 249.472 C 90.577 249.635,90.743 249.400,90.899 248.135 C 91.003 247.291,91.576 243.540,92.172 239.800 C 92.768 236.060,93.499 231.110,93.797 228.800 C 94.295 224.944,94.609 223.627,95.557 221.400 C 95.990 220.384,96.784 216.532,97.226 213.303 C 97.414 211.930,97.755 210.457,97.984 210.030 C 98.213 209.602,98.400 208.798,98.400 208.242 C 98.400 206.548,100.359 199.367,101.546 196.708 C 103.482 192.373,104.708 186.274,105.092 179.068 C 105.396 173.371,106.656 172.085,112.000 172.018 C 116.483 171.961,131.600 167.926,131.600 166.785 C 131.600 164.982,126.275 164.764,112.690 166.012 C 106.129 166.614,106.392 166.835,107.097 161.312 C 107.621 157.206,107.955 155.404,109.377 149.000 C 110.947 141.933,111.779 113.559,110.576 108.150 C 109.480 103.225,104.708 99.933,100.889 101.468 M194.697 117.411 C 192.923 118.617,192.716 118.995,189.889 126.200 C 187.360 132.645,183.929 140.980,182.725 143.600 C 182.270 144.590,181.670 146.030,181.392 146.800 C 181.114 147.570,179.865 150.450,178.616 153.200 C 176.042 158.868,175.101 161.336,174.428 164.181 C 174.171 165.270,173.339 167.470,172.580 169.069 C 171.821 170.669,171.200 172.192,171.200 172.455 C 171.200 172.718,170.547 174.119,169.749 175.567 C 168.348 178.111,166.061 183.889,164.986 187.600 C 162.729 195.399,161.041 198.706,156.292 204.644 C 144.336 219.589,129.102 229.413,127.034 223.510 C 126.296 221.401,128.576 211.521,130.567 208.200 C 130.831 207.760,131.370 206.535,131.765 205.478 C 132.548 203.382,134.176 201.600,135.309 201.600 C 136.532 201.600,140.958 199.972,141.800 199.212 C 142.240 198.815,143.410 198.083,144.400 197.586 C 154.570 192.477,160.753 175.942,154.706 170.029 C 152.233 167.612,144.555 164.420,141.178 164.405 C 137.448 164.388,125.743 176.844,119.758 187.200 C 109.326 205.253,108.029 215.955,115.070 225.900 C 116.044 227.275,116.984 228.400,117.159 228.400 C 117.334 228.400,117.887 228.755,118.388 229.190 C 122.802 233.018,135.719 232.145,142.847 227.538 C 145.336 225.930,148.361 223.071,153.468 217.500 C 157.200 213.430,157.211 213.435,156.975 219.100 C 156.566 228.909,157.336 232.648,161.715 242.121 C 163.404 245.775,169.650 248.777,173.536 247.802 C 179.709 246.252,182.400 242.909,182.400 236.792 C 182.400 234.405,182.646 232.974,183.408 230.918 C 184.716 227.393,185.839 224.058,186.142 222.800 C 187.157 218.590,188.404 218.635,190.542 222.961 C 193.732 229.416,198.223 231.873,206.101 231.473 C 215.781 230.982,220.643 228.535,228.018 220.445 C 232.591 215.428,233.339 215.252,232.897 219.297 C 232.043 227.101,247.013 232.487,250.416 225.600 C 251.712 222.977,254.299 217.407,255.431 214.800 C 256.052 213.370,256.975 211.529,257.480 210.708 C 257.986 209.887,258.400 209.120,258.400 209.004 C 258.400 208.785,260.529 205.664,262.360 203.200 C 262.932 202.430,263.850 200.923,264.400 199.850 C 264.950 198.778,266.589 196.618,268.043 195.050 C 269.497 193.483,271.387 191.141,272.243 189.846 C 276.236 183.809,278.053 181.627,279.100 181.612 C 280.573 181.592,280.229 182.695,276.461 190.071 C 274.514 193.882,272.602 197.990,272.211 199.200 C 271.820 200.410,271.265 202.120,270.978 203.000 C 270.303 205.066,269.489 208.491,268.599 213.000 L 267.888 216.600 269.300 219.600 C 271.101 223.427,271.973 224.204,276.060 225.627 C 282.300 227.799,286.551 225.639,291.861 217.600 C 293.096 215.730,294.733 213.257,295.499 212.105 C 297.499 209.094,297.707 209.586,297.383 216.567 C 297.058 223.541,297.213 224.113,300.090 226.595 C 306.912 232.482,313.218 231.077,319.117 222.355 C 325.592 212.780,326.400 212.483,326.400 219.670 C 326.400 225.668,332.721 230.059,337.810 227.595 C 340.765 226.165,348.143 218.167,352.810 211.337 C 353.135 210.862,354.477 208.972,355.793 207.137 C 359.472 202.006,362.977 196.923,367.734 189.821 C 369.889 186.604,372.934 181.284,373.983 178.903 C 374.850 176.936,372.984 176.013,370.305 177.085 C 368.122 177.958,366.129 180.442,362.592 186.698 C 359.768 191.694,356.936 195.735,352.872 200.566 C 352.063 201.528,350.500 203.442,349.400 204.819 C 344.024 211.548,337.844 218.400,337.151 218.400 C 336.139 218.400,335.891 212.239,336.821 210.200 C 337.022 209.760,337.645 207.600,338.205 205.400 C 338.766 203.200,339.402 200.860,339.618 200.200 C 339.834 199.540,340.645 196.840,341.421 194.200 C 342.196 191.560,343.196 188.410,343.643 187.200 C 346.300 180.007,347.176 171.591,345.483 169.520 C 343.471 167.059,338.223 165.252,333.067 165.246 L 328.437 165.241 327.418 166.451 C 326.858 167.117,326.400 167.824,326.400 168.023 C 326.400 168.222,325.957 168.496,325.416 168.632 C 324.875 168.767,324.090 169.446,323.670 170.139 C 321.880 173.099,318.514 176.267,317.159 176.267 C 315.119 176.267,307.656 184.413,298.559 196.569 C 297.876 197.481,296.340 199.302,295.145 200.614 C 293.951 201.926,292.170 203.985,291.187 205.189 C 287.914 209.197,287.115 209.500,287.737 206.495 C 287.862 205.893,288.120 204.590,288.311 203.600 C 288.502 202.610,288.871 201.170,289.131 200.400 C 291.339 193.862,292.704 185.071,291.884 182.666 C 289.727 176.334,284.514 173.914,277.506 175.991 C 275.802 176.497,269.237 182.755,265.539 187.400 C 260.487 193.746,259.607 193.838,260.966 187.882 C 264.070 174.281,263.740 170.827,258.944 166.700 C 255.680 163.892,254.566 164.342,250.800 169.992 C 250.470 170.488,249.909 171.277,249.553 171.746 C 248.450 173.203,245.352 179.186,243.208 184.000 C 239.790 191.678,239.821 191.599,238.209 196.849 C 237.277 199.885,236.862 200.544,232.192 206.400 C 230.275 208.804,225.203 213.976,220.030 218.800 C 216.192 222.380,207.094 226.119,205.260 224.871 C 203.735 223.833,204.325 216.952,206.363 212.000 C 207.042 210.350,207.598 208.872,207.599 208.715 C 207.599 208.559,208.239 207.085,209.019 205.441 C 210.531 202.255,211.077 201.880,215.487 200.999 C 216.194 200.858,217.426 200.299,218.224 199.758 C 219.021 199.217,220.602 198.245,221.737 197.598 C 228.630 193.668,234.646 184.200,234.527 177.467 C 234.412 170.959,231.352 167.830,222.723 165.395 C 217.122 163.815,214.796 164.915,208.505 172.117 C 206.577 174.324,204.355 176.866,203.566 177.765 C 197.731 184.417,188.400 202.821,188.400 207.677 C 188.400 208.669,187.985 209.450,185.249 213.600 C 184.017 215.470,181.465 219.520,179.578 222.600 C 175.917 228.577,174.675 229.668,174.200 227.326 C 174.074 226.707,173.708 225.284,173.386 224.165 C 172.622 221.513,172.643 218.608,173.442 216.164 C 173.795 215.084,174.206 212.400,174.355 210.200 C 174.583 206.835,174.837 205.756,175.954 203.400 C 177.468 200.207,178.737 195.403,179.071 191.600 C 179.377 188.117,180.098 185.396,181.325 183.097 C 181.883 182.050,182.553 180.520,182.813 179.697 C 183.074 178.874,183.881 176.940,184.608 175.400 C 185.335 173.860,186.062 171.892,186.223 171.027 C 186.704 168.446,188.769 164.299,190.335 162.768 C 191.635 161.498,193.017 159.694,197.932 152.854 C 198.664 151.834,199.987 150.280,200.872 149.400 C 202.437 147.843,203.020 146.978,205.591 142.400 C 212.145 130.727,212.683 128.070,209.597 122.611 C 207.709 119.271,205.757 117.637,203.600 117.592 C 203.050 117.581,202.150 117.314,201.600 117.000 C 199.904 116.031,196.424 116.238,194.697 117.411 M147.605 175.006 C 148.502 176.087,147.853 180.273,146.366 183.000 C 143.834 187.642,138.717 193.161,137.716 192.330 C 137.016 191.749,137.053 191.489,138.151 189.298 C 138.993 187.617,139.912 185.744,142.319 180.801 C 144.746 175.817,146.595 173.789,147.605 175.006 M225.091 174.900 C 227.110 177.495,221.440 188.714,216.625 191.650 C 213.471 193.573,213.628 192.867,218.484 183.254 C 222.727 174.857,223.902 173.372,225.091 174.900 M334.294 178.032 C 335.128 179.667,334.871 181.354,333.006 186.475 C 330.763 192.635,330.259 193.516,325.958 198.800 C 325.511 199.350,324.257 200.970,323.172 202.400 C 320.927 205.359,316.549 211.046,315.983 211.738 C 309.964 219.093,309.763 219.098,311.215 211.863 C 312.056 207.675,312.598 205.588,313.206 204.200 C 317.112 195.284,319.998 190.731,326.981 182.463 C 331.412 177.217,333.296 176.076,334.294 178.032 M304.701 197.922 C 304.413 200.068,302.507 203.976,301.040 205.425 C 300.358 206.099,299.395 207.267,298.900 208.020 L 298.000 209.389 298.000 208.223 C 298.000 205.977,300.317 201.279,303.176 197.729 C 304.540 196.036,304.947 196.087,304.701 197.922 "
              stroke="none" fill="#ed8478" fill-rule="evenodd"></path>
    </g>
</svg>
